<?xml version="1.0" encoding="utf-8"?>
<!-- Generator: Adobe Illustrator 23.1.0, SVG Export Plug-In . SVG Version: 6.00 Build 0)  -->
<svg version="1.1" id="Слой_1" xmlns="http://www.w3.org/2000/svg" xmlns:xlink="http://www.w3.org/1999/xlink" x="0px" y="0px"
	 width="125px" height="177px" viewBox="0 0 125 177" enable-background="new 0 0 125 177" xml:space="preserve">
<g id="_x31_234">
	
		<radialGradient id="SVGID_1_" cx="4641.91553" cy="-53851.02344" r="32.46978" gradientTransform="matrix(1.024 0 0 -0.1699 -4690.82178 -9016.40918)" gradientUnits="userSpaceOnUse">
		<stop  offset="0" style="stop-color:#000000;stop-opacity:0.7"/>
		<stop  offset="1" style="stop-color:#000000;stop-opacity:0"/>
	</radialGradient>
	<path fill="url(#SVGID_1_)" d="M95.68427,133.08705c0-3.04062-14.85802-5.51144-33.18523-5.51144
		c-18.32626,0-33.18333,2.46893-33.18333,5.51144c0,3.03874,14.85518,5.50764,33.18333,5.50764
		S95.68427,136.12579,95.68427,133.08705z"/>
	
		<linearGradient id="SVGID_2_" gradientUnits="userSpaceOnUse" x1="56.30042" y1="-2421.1333" x2="67.51842" y2="-2421.1333" gradientTransform="matrix(1 0 0 -1 0 -2296)">
		<stop  offset="0" style="stop-color:#FFFFFF"/>
		<stop  offset="0.0683" style="stop-color:#D3D3D3"/>
		<stop  offset="0.1374" style="stop-color:#ADADAD"/>
		<stop  offset="0.2016" style="stop-color:#929292"/>
		<stop  offset="0.2584" style="stop-color:#828282"/>
		<stop  offset="0.3018" style="stop-color:#7C7C7C"/>
		<stop  offset="0.5333" style="stop-color:#EBEBEB"/>
		<stop  offset="0.7228" style="stop-color:#474747"/>
		<stop  offset="1" style="stop-color:#000000"/>
	</linearGradient>
	<path fill="url(#SVGID_2_)" d="M61.90941,117.02418c-3.09788,0-5.609-0.93956-5.609-0.40881v16.20882
		c0,0.55606,2.51113,0.99017,5.609,0.99017c3.0994,0,5.609-0.43411,5.609-0.99017v-16.20345
		C67.51688,116.07695,65.00575,117.02418,61.90941,117.02418z"/>
	<path fill="#FFFFFF" d="M75.87724,118.06141c-12.02994,4.06132-24.05989,3.21492-36.09121-4.90079
		c-3.9073-2.60579-8.35436-7.35533-10.72705-11.26541c-7.20271-12.10902-7.73691-24.21251-2.90966-36.31738
		c2.06743-4.90216,5.2102-9.88342,10.72705-14.63297c10.95598-8.96348,21.91473-10.64934,32.87213-8.81086
		c7.51489,1.45553,15.01592,4.5983,22.37263,12.64324c9.19521,10.87689,10.95737,21.83566,9.34922,32.71672
		c-1.45691,7.81461-4.52059,15.70692-13.25791,23.44521C84.1525,114.38582,80.01348,116.6045,75.87724,118.06141"/>
	<path fill="#D9261C" d="M76.18282,115.26598c4.6312-1.86274,9.39332-4.69735,13.86524-9.68893
		c8.71976-10.20052,10.43673-20.42398,8.94384-30.6272c-1.33901-7.30518-4.17227-14.75883-12.29813-21.91417
		c-10.65675-8.79671-21.31754-10.28691-31.97701-8.19874c-6.55872,1.49154-13.26863,4.39768-19.67888,11.47879
		c-8.72382,10.20862-10.43808,20.41858-8.94654,30.62854c1.34171,7.30518,4.17361,14.68594,12.29947,21.91418
		c10.65945,8.79807,21.3189,10.20187,31.9797,8.19604C72.3102,116.60634,74.24583,116.01109,76.18282,115.26598"/>
	<path fill="#FFFFFF" d="M72.77831,109.29982c4.09196-1.47464,8.34693-3.93041,12.35886-8.4314
		c7.93639-9.41105,8.83897-18.9051,6.38321-28.31615c-1.47168-4.82706-3.92744-9.73711-9.168-14.40261
		c-9.49257-7.77486-18.9866-8.67446-28.48064-6.13867c-4.7485,1.47465-9.65856,4.01193-14.32258,9.33102
		c-7.61183,9.49256-8.51144,18.98513-5.81114,28.47768c1.47168,4.7485,4.01044,9.57704,9.41253,14.24107
		c9.57556,7.52885,19.0696,8.34692,28.56216,5.56067C72.03581,109.54288,72.36482,109.46136,72.77831,109.29982"/>
	<path d="M51.58702,57.38165c7.81461-3.06507,15.55429-2.98736,23.29258,0.30526l-11.95502,6.97376l-11.95362-6.97376"/>
	<path d="M73.96104,104.42192c-7.81461,3.06784-15.55428,3.06784-23.37027-0.22478l11.95363-6.97237l11.95085,6.97237"/>
	<path d="M64.41063,85.17817c1.2016-1.11696,1.28763-2.13126,1.28763-3.21492v-3.18578h-3.64645v3.18439
		c-0.12627,0.95601,0.4551,1.76078-0.66602,2.70292l2.05633,1.32648C63.80289,85.72348,64.13589,85.44181,64.41063,85.17817"/>
	<path d="M63.74879,89.81393c0.2442-0.22478,0.56888-0.32191,0.91299,0.01665c0.09019,0.1096,0.14986,0.25391,0.14986,0.39406
		l-0.00971,5.6223h2.42542c0-1.89816,0-3.81573,0-5.71526h-0.00278c-0.04161-0.65908-0.00277-1.23907-0.92825-2.03413
		c-0.56889-0.40794-1.1364-0.50091-1.81628-0.3996c-0.39406,0.05967-0.83392,0.30387-1.28764,0.69099
		c-0.83807-0.99208-1.97446-0.92409-3.00817-0.12071v-0.51756H57.8268v8.08935h2.35188
		c0.00971-1.9828-0.03468-3.97529,0.03053-5.94698c0.21646-0.39127,0.45234-0.35243,0.78951-0.26503
		c0.23032,0.13043,0.29832,0.39129,0.28583,0.57166l-0.00833,5.6348h2.3269v-5.64313
		C63.60447,90.07341,63.64193,89.93742,63.74879,89.81393"/>
	<path d="M78.0405,72.74689l-3.85413,0.47582c-0.10152-0.53927-0.27122-0.91991-0.50912-1.14197
		c-0.23792-0.22205-0.53134-0.33308-0.88026-0.33308c-0.62807,0-1.11658,0.31721-1.46552,0.95164
		C71.0777,73.1561,70.89054,74.1331,70.77,75.63035c0.46313-0.46947,0.93894-0.81682,1.42745-1.04204
		c0.48851-0.22521,1.05315-0.33784,1.69392-0.33784c1.24347,0,2.29503,0.44409,3.15467,1.3323
		c0.85963,0.88819,1.28946,2.01429,1.28946,3.37831c0,0.91991-0.21729,1.76053-0.65187,2.52184
		c-0.43458,0.76131-1.03728,1.33706-1.80811,1.72723s-1.73674,0.58525-2.89773,0.58525c-1.39574,0-2.5155-0.23791-3.35928-0.71373
		c-0.84378-0.47582-1.51786-1.23554-2.02222-2.27917c-0.50436-1.04363-0.75655-2.42509-0.75655-4.14438
		c0-2.51866,0.52975-4.36325,1.58923-5.53377c1.05949-1.17052,2.52818-1.75578,4.40607-1.75578
		c1.11024,0,1.98734,0.12847,2.63128,0.38541s1.17844,0.63284,1.60351,1.12769C77.4949,71.37654,77.81845,71.99827,78.0405,72.74689
		z M70.90323,78.96109c0,0.75496,0.19033,1.34656,0.57098,1.7748s0.84695,0.64235,1.3989,0.64235
		c0.50753,0,0.9326-0.1935,1.27518-0.5805c0.34259-0.38699,0.51389-0.96432,0.51389-1.73197
		c0-0.78668-0.17764-1.38622-0.53292-1.79859c-0.35528-0.41238-0.7962-0.61857-1.32278-0.61857
		c-0.53925,0-0.99129,0.19984-1.35608,0.59953C71.08562,77.64783,70.90323,78.21881,70.90323,78.96109z"/>
	<path d="M54.35654,70.52857c0.333-1.1697-0.84085-2.66685-2.31857-2.8833c-1.4805-0.21924-3.26348,0.84779-4.00304,2.13541
		l-2.11044-3.38698c1.35701-1.06979,2.80144-1.74413,4.05576-1.8926c1.70112-0.26225,3.52158-0.2123,5.39474,0.45511
		c0.53003,0.19287,1.01568,0.42736,1.44027,0.68545c1.30428,0.80616,1.93978,1.7261,2.2048,2.60857
		c0.08464,0.29693,0.12488,0.58831,0.16373,1.14056c0.04023,0.55363,0.07632,1.36533-0.33163,2.19508
		c-0.40794,0.83113-1.25849,1.68031-2.26723,2.26308c0.92549,0.08047,1.77188,0.59386,2.37268,1.7594
		c0.60497,1.15997,0.96573,2.96239,0.44401,4.42902c-0.51893,1.46662-1.92173,2.59608-2.99986,3.26626
		c-1.07673,0.6688-1.826,0.87553-2.58776,1.01707c-1.4916,0.28167-3.09005,0.32051-4.63298-0.01665
		c-0.74928-0.15957-1.4694-0.40517-2.12571-0.70348c-0.6563-0.31358-1.24601-0.68266-1.77328-1.11141l2.4046-3.06646
		c1.25294,1.1475,3.38559,1.74691,4.99096,1.18217c1.60399-0.56334,2.68211-2.29082,2.09518-3.57568
		c-0.5897-1.28486-2.84306-2.12431-4.52059-1.91341l0.54947-2.69043C52.18643,72.5294,54.02214,71.69131,54.35654,70.52857"/>
</g>
</svg>
